<svg width="82" height="82" viewBox="0 0 82 82" fill="none" xmlns="http://www.w3.org/2000/svg">
<path d="M41 31L43.7009 38.2991L51 41L43.7009 43.7009L41 51L38.2991 43.7009L31 41L38.2991 38.2991L41 31Z" fill="white"/>
<path d="M33.8867 72.7941L34.2427 72.1395L32.6216 71.7469L32.6271 72.489C32.6359 72.8945 32.643 73.3242 32.6482 73.7782C32.6458 74.2304 32.6471 74.6669 32.6521 75.0879L32.6988 75.0992C32.89 74.7175 33.0879 74.3251 33.2925 73.9219C33.4875 73.5246 33.6856 73.1487 33.8867 72.7941ZM37.5712 69.6119L33.3504 76.6399L31.2861 76.14L30.7484 67.9596L32.5678 68.4002L32.5965 70.3209L34.9174 70.883L35.8217 69.1882L37.5712 69.6119Z" fill="white"/>
<path d="M26.02 65.5117L22.6563 70.4221L21.4683 69.6083L21.9593 68.6792L21.9197 68.6521C21.5155 68.86 21.1337 68.9573 20.7744 68.9439C20.4105 68.9371 20.1032 68.8478 19.8524 68.676C19.7138 68.5811 19.6051 68.492 19.5263 68.4089C19.4429 68.3324 19.3795 68.2551 19.3361 68.1769L20.435 67.0823C20.5027 67.1675 20.575 67.2461 20.6517 67.3181C20.7219 67.3855 20.8098 67.4554 20.9154 67.5277C21.1002 67.6543 21.3423 67.7184 21.6419 67.72C21.9303 67.7236 22.2535 67.6056 22.6116 67.366L24.5647 64.5148L26.02 65.5117Z" fill="white"/>
<path d="M17.5531 57.4383C17.9927 58.0285 18.1381 58.5786 17.9892 59.0885C17.8356 59.592 17.4829 60.0492 16.9311 60.4602L14.9967 61.9011L15.4842 62.5555L14.4352 63.3368L13.8327 62.6484L12.4405 63.431L11.566 62.2569L12.8363 61.3107L11.9833 60.1655L13.09 59.3412L13.943 60.4864L15.8581 59.0599C16.1276 58.8592 16.2826 58.6589 16.3233 58.459C16.3528 58.2575 16.2982 58.0637 16.1596 57.8777C16.1023 57.8007 16.0353 57.7309 15.9587 57.6682C15.8773 57.5991 15.7999 57.5421 15.7265 57.497L16.5913 56.5087C16.7206 56.6019 16.8714 56.724 17.0437 56.875C17.2113 57.0195 17.381 57.2073 17.5531 57.4383Z" fill="white"/>
<path d="M13.5467 50.4198L8.08426 53.213L7.68876 51.5063L10.2475 50.3221C10.525 50.2085 10.7995 50.0997 11.0711 49.9957C11.3426 49.8918 11.621 49.7821 11.9064 49.6667L11.8955 49.6199C11.5867 49.634 11.2827 49.6511 10.9835 49.6711C10.6825 49.6834 10.3875 49.6861 10.0985 49.6791L7.26075 49.6592L6.91672 48.1745L9.45378 46.8968C9.72589 46.7599 9.9959 46.6316 10.2638 46.512C10.5299 46.3847 10.8048 46.2594 11.0883 46.1362L11.0774 46.0895C10.7686 46.1035 10.4704 46.1275 10.1826 46.1613C9.89297 46.1874 9.59767 46.2065 9.29667 46.2188L6.48059 46.2924L6.11218 44.7025L12.2329 44.7501L12.6988 46.7608L10.5061 47.8232C10.2459 47.941 9.9858 48.0587 9.72567 48.1765C9.46373 48.2865 9.18322 48.4048 8.88412 48.5316L8.89495 48.5784C9.21934 48.5607 9.52333 48.5437 9.80694 48.5272C10.0887 48.503 10.3723 48.4865 10.6578 48.4779L13.0916 48.4559L13.5467 50.4198Z" fill="white"/>
<path d="M12.8612 34.7448C12.7523 35.2369 12.5323 35.6757 12.2012 36.0613C11.8639 36.4373 11.4394 36.708 10.9276 36.8733C10.408 37.0369 9.82793 37.0478 9.18743 36.906C8.53911 36.7626 8.01782 36.5079 7.62356 36.1421C7.22929 35.7762 6.96253 35.3526 6.82328 34.8711C6.67794 34.3801 6.65972 33.8886 6.76863 33.3965C6.87753 32.9044 7.10059 32.4703 7.4378 32.0943C7.76721 31.7166 8.18782 31.445 8.69963 31.2797C9.21144 31.1144 9.7915 31.1035 10.4398 31.247C11.0803 31.3887 11.6016 31.6434 12.0037 32.0109C12.398 32.3768 12.6686 32.8013 12.8157 33.2845C12.9549 33.7659 12.9701 34.2527 12.8612 34.7448ZM11.4669 34.4362C11.5447 34.0847 11.4551 33.7863 11.198 33.541C10.9332 33.2939 10.5508 33.1151 10.0509 33.0044C9.54316 32.8921 9.12102 32.8929 8.78444 33.0068C8.44786 33.1208 8.24068 33.3535 8.16289 33.705C8.08337 34.0643 8.17215 34.3667 8.42921 34.612C8.68799 34.8495 9.07125 35.0245 9.57896 35.1368C10.0789 35.2475 10.5001 35.2506 10.8428 35.1461C11.1794 35.0322 11.3874 34.7955 11.4669 34.4362Z" fill="white"/>
<path d="M15.8549 26.4112L10.8789 23.1454L11.669 21.9415L12.6076 22.414L12.634 22.3739C12.4181 21.9738 12.3133 21.594 12.3195 21.2345C12.3191 20.8707 12.4023 20.5616 12.5691 20.3075C12.6613 20.167 12.7482 20.0566 12.8297 19.9761C12.9045 19.8912 12.9806 19.8264 13.0579 19.7814L14.174 20.8584C14.0902 20.9278 14.0131 21.0016 13.9426 21.0797C13.8766 21.1512 13.8084 21.2405 13.7382 21.3475C13.6153 21.5347 13.556 21.7781 13.5604 22.0776C13.5625 22.3661 13.6868 22.6869 13.9335 23.0402L16.8228 24.9364L15.8549 26.4112Z" fill="white"/>
<path d="M21.7768 19.0484L16.8413 12.2365L18.2309 11.2297L21.0613 15.1361L21.1001 15.1079L21.2388 12.0882L22.7936 10.9617L22.539 14.1691L26.4121 15.6901L24.867 16.8095L22.4198 15.7226L22.3075 16.8561L23.1664 18.0416L21.7768 19.0484Z" fill="white"/>
<path d="M34.1572 12.917C33.6666 13.0324 33.1758 13.0246 32.6847 12.8935C32.1996 12.7529 31.7716 12.4878 31.4006 12.0984C31.0277 11.7012 30.7662 11.1833 30.616 10.5448C30.464 9.89841 30.4673 9.31825 30.6258 8.8043C30.7844 8.29035 31.0503 7.8662 31.4237 7.53183C31.803 7.18785 32.238 6.95816 32.7286 6.84277C33.2192 6.72738 33.707 6.74002 34.1921 6.8807C34.6754 7.01358 35.1025 7.27473 35.4735 7.66413C35.8445 8.05353 36.1061 8.57141 36.2581 9.21777C36.4083 9.85635 36.405 10.4365 36.2483 10.9582C36.0898 11.4722 35.8247 11.9002 35.4532 12.2424C35.0798 12.5768 34.6478 12.8016 34.1572 12.917ZM33.8303 11.527C34.1807 11.4445 34.4107 11.2343 34.5202 10.8962C34.6279 10.5504 34.6231 10.1283 34.5059 9.62988C34.3868 9.1237 34.203 8.7437 33.9542 8.4899C33.7055 8.23611 33.406 8.15042 33.0555 8.23284C32.6973 8.31709 32.4634 8.52825 32.3539 8.8663C32.2522 9.20252 32.2609 9.62372 32.3799 10.1299C32.4971 10.6283 32.6771 11.0092 32.9199 11.2726C33.1686 11.5264 33.4721 11.6112 33.8303 11.527Z" fill="white"/>
<path d="M43.2618 12.0378L43.8635 7.50553L43.0784 7.40129L43.2506 6.10467L44.0436 6.14943L44.0862 5.82825C44.142 5.40793 44.2639 5.03675 44.452 4.7147C44.64 4.39264 44.9063 4.14958 45.2509 3.98551C45.5955 3.82143 46.0334 3.77467 46.5648 3.84522C46.8106 3.87786 47.0335 3.93166 47.2334 4.00662C47.4332 4.08157 47.5934 4.15127 47.714 4.2157L47.2223 5.45778C47.1244 5.40444 47.025 5.363 46.924 5.33345C46.8241 5.29597 46.7265 5.27091 46.6314 5.25827C46.4173 5.22985 46.2418 5.27514 46.1049 5.39416C45.9691 5.50526 45.8812 5.71148 45.8412 6.01284L45.7938 6.3697L46.8525 6.51027L46.6709 7.87827L45.6122 7.7377L45.0104 12.2699L43.2618 12.0378Z" fill="white"/>
<path d="M54.1651 15.3776C53.5062 15.0496 53.1281 14.6244 53.0306 14.1022C52.9403 13.5836 53.0485 13.0164 53.3552 12.4005L54.4303 10.2414L53.6998 9.87765L54.2829 8.70678L55.1314 9.04884L56.02 7.72183L57.3305 8.3744L56.6245 9.79233L57.9028 10.4288L57.2877 11.6642L56.0094 11.0277L54.9449 13.1653C54.7952 13.4661 54.7473 13.7148 54.8013 13.9115C54.866 14.1046 55.0022 14.2528 55.2099 14.3562C55.2958 14.399 55.3871 14.4311 55.4837 14.4524C55.5875 14.4773 55.6824 14.4932 55.7682 14.5002L55.443 15.7726C55.2855 15.7479 55.0958 15.707 54.8739 15.6501C54.6592 15.5968 54.4229 15.506 54.1651 15.3776Z" fill="white"/>
<path d="M60.1899 19.2347L66.3689 13.5267L67.5659 14.8224L66.0497 16.2229L65.2082 16.8859C65.5072 16.9148 65.8187 16.9809 66.143 17.0843C66.4786 17.1882 66.782 17.387 67.0535 17.6809C67.4932 18.1568 67.6521 18.6472 67.5302 19.1519C67.4196 19.657 67.091 20.162 66.5445 20.6668L63.8296 23.1748L62.6327 21.879L65.1801 19.5258C65.4974 19.2327 65.6741 18.9877 65.7102 18.791C65.7517 18.6002 65.6857 18.4108 65.5119 18.2227C65.3599 18.0582 65.1915 17.9524 65.0065 17.9055C64.8274 17.8531 64.6052 17.8188 64.3397 17.8026L61.3868 20.5304L60.1899 19.2347Z" fill="white"/>
<path d="M67.783 30.9029C67.5883 30.3693 67.5294 29.8458 67.6061 29.3324C67.6828 28.819 67.8938 28.3588 68.2393 27.9518C68.5847 27.5448 69.0655 27.2289 69.6818 27.004C70.2906 26.782 70.8581 26.7154 71.3845 26.8044C71.9136 26.9009 72.3687 27.1096 72.7497 27.4305C73.1383 27.7486 73.4134 28.1293 73.5752 28.5727C73.7698 29.1064 73.81 29.5899 73.6956 30.0233C73.5915 30.4615 73.368 30.8411 73.0252 31.162C72.6927 31.4877 72.2709 31.7438 71.7599 31.9302C71.6171 31.9823 71.4715 32.0269 71.3233 32.0639C71.1825 32.0982 71.0756 32.1202 71.0024 32.1299L69.781 28.7817C69.4026 29.0049 69.1637 29.2837 69.0642 29.618C68.9723 29.9496 68.9935 30.2995 69.1278 30.6678C69.2732 31.0661 69.5438 31.4229 69.9399 31.7383L69.1381 32.6567C68.8385 32.4424 68.5679 32.1792 68.3263 31.8671C68.0847 31.555 67.9036 31.2336 67.783 30.9029ZM70.8704 28.3715L71.6066 30.3894C71.9147 30.277 72.1391 30.11 72.2796 29.8884C72.4305 29.6716 72.4456 29.3978 72.3249 29.0672C72.2317 28.8116 72.0579 28.6153 71.8035 28.4782C71.5566 28.3383 71.2456 28.3028 70.8704 28.3715Z" fill="white"/>
<path d="M69.8579 40.3202L75.9249 39.4077L75.7575 41.1517L72.955 41.4613C72.6558 41.4808 72.3609 41.4967 72.0704 41.509C71.7799 41.5213 71.4811 41.5368 71.1739 41.5556L71.1693 41.6033C71.4666 41.6881 71.7602 41.7686 72.0503 41.8446C72.3396 41.9287 72.6201 42.0199 72.892 42.1183L75.5763 43.039L75.4306 44.5561L72.6191 44.9612C72.3175 45.0046 72.0208 45.0404 71.7287 45.0687C71.4359 45.1048 71.1355 45.1363 70.8276 45.163L70.823 45.2108C71.1203 45.2956 71.4107 45.3676 71.6943 45.427C71.9772 45.4943 72.2633 45.57 72.5526 45.6541L75.246 46.4792L75.0901 48.1037L69.3018 46.1135L69.499 44.059L71.9157 43.7485C72.1998 43.7195 72.4839 43.6905 72.7679 43.6615C73.0512 43.6405 73.3548 43.6174 73.6787 43.5922L73.6833 43.5445C73.3701 43.4581 73.0765 43.3777 72.8023 43.3032C72.5274 43.2366 72.2533 43.1621 71.9799 43.0796L69.6653 42.3269L69.8579 40.3202Z" fill="white"/>
<path d="M65.4707 55.4935C65.7633 55.0066 66.1333 54.6317 66.5808 54.3686C67.0283 54.1055 67.5188 53.9804 68.0525 53.9932C68.5862 54.0059 69.1342 54.1813 69.6965 54.5192C70.2518 54.8531 70.6604 55.2526 70.9221 55.7179C71.1796 56.1901 71.3034 56.6752 71.2934 57.1732C71.2903 57.6754 71.1671 58.1287 70.924 58.5333C70.6314 59.0201 70.2806 59.3553 69.8716 59.5388C69.4653 59.7333 69.0296 59.7981 68.5646 59.7333C68.1023 59.6794 67.638 59.5124 67.1717 59.2321C67.0415 59.1538 66.9153 59.0686 66.7933 58.9766C66.6781 58.8887 66.5938 58.8194 66.5403 58.7686L68.3764 55.7139C67.9649 55.5599 67.5979 55.5493 67.2754 55.6822C66.9597 55.8191 66.7009 56.0556 66.4989 56.3916C66.2805 56.755 66.1732 57.1898 66.1769 57.6961L64.9586 57.6498C64.9369 57.2821 64.9715 56.9062 65.0624 56.5221C65.1532 56.1381 65.2893 55.7952 65.4707 55.4935ZM69.3802 56.3033L68.2736 58.1443C68.5547 58.3133 68.8256 58.3828 69.0863 58.3528C69.3498 58.3338 69.5722 58.1734 69.7535 57.8717C69.8936 57.6386 69.9371 57.38 69.8838 57.096C69.8373 56.8161 69.6695 56.5518 69.3802 56.3033Z" fill="white"/>
<path d="M57.8912 63.8405C58.3489 63.5042 58.835 63.301 59.3493 63.2309C59.8636 63.1608 60.3645 63.2345 60.852 63.4522C61.3394 63.6698 61.7774 64.043 62.1658 64.5716C62.5494 65.0939 62.7722 65.6201 62.8341 66.1503C62.8896 66.6853 62.8167 67.1806 62.6154 67.6363C62.4188 68.0983 62.1303 68.4691 61.7499 68.7485C61.2922 69.0848 60.8392 69.2587 60.3911 69.2703C59.9413 69.293 59.5143 69.1848 59.1103 68.9456C58.7045 68.7176 58.3406 68.3843 58.0185 67.9459C57.9285 67.8234 57.845 67.6962 57.7679 67.5642C57.6955 67.4387 57.6445 67.3422 57.6147 67.2747L60.487 65.1646C60.1668 64.8639 59.8322 64.7125 59.4834 64.7107C59.1394 64.7153 58.8094 64.8336 58.4935 65.0657C58.1518 65.3167 57.885 65.6765 57.6931 66.145L56.587 65.6324C56.7088 65.2848 56.8857 64.9514 57.1177 64.632C57.3497 64.3127 57.6075 64.0489 57.8912 63.8405ZM61.1858 66.0956L59.4547 67.3673C59.6489 67.6317 59.872 67.8003 60.1241 67.8732C60.3745 67.9573 60.6415 67.8951 60.9252 67.6867C61.1444 67.5257 61.2842 67.3038 61.3446 67.0212C61.4098 66.7451 61.3568 66.4365 61.1858 66.0956Z" fill="white"/>
<path d="M50.3014 68.1308L52.2813 76.3065L50.6135 76.7104L49.4781 72.0219L49.4314 72.0332L48.1568 74.7742L46.2907 75.2261L47.7439 72.3554L44.7382 69.478L46.5926 69.0289L48.4439 70.9636L48.9782 69.9576L48.6336 68.5347L50.3014 68.1308Z" fill="white"/>
</svg>
